<svg width="282" height="70" viewBox="0 0 282 70" fill="none" xmlns="http://www.w3.org/2000/svg">
<path d="M33.136 41.928H21.328L16.576 69H7.888L12.64 41.928H0.784L2.128 34.44H34.48L33.136 41.928ZM51.7233 61.608C51.7233 62.44 52.1393 62.856 52.9713 62.856C53.8353 62.856 54.5553 62.696 55.1313 62.376L54.8913 67.8C53.3553 69.048 51.6273 69.672 49.7073 69.672C46.0913 69.672 44.1233 68.28 43.8033 65.496C41.8833 68.28 39.2913 69.672 36.0273 69.672C32.7953 69.672 30.6993 68.936 29.7393 67.464C29.0993 66.536 28.7793 65.48 28.7793 64.296C28.7793 63.112 28.8753 62.024 29.0673 61.032L31.7553 45.912H39.9153L37.6593 58.68C37.5633 59.256 37.5153 59.832 37.5153 60.408C37.5153 61.944 38.3793 62.712 40.1073 62.712C41.5473 62.712 42.6993 62.216 43.5633 61.224L46.2993 45.912H54.4593L51.7712 61.032C51.7393 61.224 51.7233 61.416 51.7233 61.608ZM88.8029 34.44L87.9869 60.6H89.0909L97.4429 34.44H106.851L94.9949 69H80.5949L81.8909 46.872L75.4589 69H61.0589L61.3949 34.44H70.8029L69.9389 60.6H71.0429L79.4429 34.44H88.8029ZM115.299 69.672C108.643 69.672 105.315 67.368 105.315 62.76C105.315 62.12 105.379 61.432 105.507 60.696L106.515 54.744C107.059 51.672 108.467 49.32 110.739 47.688C113.043 46.024 116.083 45.192 119.859 45.192C126.291 45.192 129.507 47.624 129.507 52.488C129.507 53.192 129.443 53.96 129.315 54.792L128.739 58.2H114.099L113.907 59.304C113.843 59.688 113.811 60.04 113.811 60.36C113.811 62.12 114.851 63 116.931 63C117.699 63 118.355 62.76 118.899 62.28C119.443 61.8 119.763 61.24 119.859 60.6L127.827 60.696C126.771 66.68 122.595 69.672 115.299 69.672ZM121.059 55.272C121.187 54.728 121.251 54.232 121.251 53.784C121.251 53.304 121.043 52.824 120.627 52.344C120.211 51.864 119.539 51.624 118.611 51.624C117.715 51.624 116.883 51.928 116.115 52.536C115.379 53.144 114.867 54.056 114.579 55.272H121.059ZM148.551 45.24C151.719 45.24 153.943 46.12 155.223 47.88C156.183 49.128 156.663 50.648 156.663 52.44C156.663 53.176 156.583 53.944 156.423 54.744L155.463 60.12C154.919 63.192 153.495 65.56 151.191 67.224C148.919 68.856 146.039 69.672 142.551 69.672C139.095 69.672 136.439 68.984 134.583 67.608C133.111 66.52 132.375 65 132.375 63.048C132.375 62.536 132.423 62.008 132.519 61.464L137.607 32.568H145.767L143.319 46.536C144.663 45.672 146.407 45.24 148.551 45.24ZM148.119 55.464C148.151 55.208 148.167 54.856 148.167 54.408C148.167 53.928 147.959 53.432 147.543 52.92C147.159 52.376 146.295 52.104 144.951 52.104C143.639 52.104 142.695 52.504 142.119 53.304L140.727 61.32C141.111 62.28 141.911 62.76 143.127 62.76C145.591 62.76 147.047 61.528 147.495 59.064L148.119 55.464Z" fill="#551BB3"/>
<path d="M170.358 47.784C170.358 48.712 170.47 49.4 170.694 49.848H162.198C162.006 49.08 161.91 48.088 161.91 46.872C161.91 43 163.206 39.912 165.798 37.608C168.422 35.272 172.166 34.104 177.03 34.104C184.806 34.104 188.694 37.24 188.694 43.512C188.694 45.752 188.15 47.848 187.062 49.8C185.974 51.72 184.646 53.304 183.078 54.552C181.51 55.768 179.942 56.84 178.374 57.768C176.806 58.664 175.446 59.432 174.294 60.072C173.142 60.68 172.518 61.144 172.422 61.464V61.512H185.238L183.894 69H158.79L159.414 65.448C159.766 63.432 160.534 61.64 161.718 60.072C162.902 58.472 164.246 57.224 165.75 56.328C167.254 55.432 168.838 54.552 170.502 53.688C172.198 52.792 173.734 52.008 175.11 51.336C176.486 50.632 177.622 49.736 178.518 48.648C179.446 47.56 179.91 46.344 179.91 45C179.91 42.696 178.614 41.544 176.022 41.544C174.23 41.544 172.838 42.12 171.846 43.272C170.854 44.392 170.358 45.896 170.358 47.784ZM210.378 69H201.834L202.89 62.904H189.258L191.226 51.816L204.81 35.4H213.93L200.058 53.208L199.578 55.992H204.714L205.914 49.416H213.834L212.634 55.992H217.386L216.186 62.904H211.434L210.378 69Z" fill="url(#paint0_linear_0_1)"/>
<path fill-rule="evenodd" clip-rule="evenodd" d="M250.473 32.0648C249.028 30.4042 248.293 29.6143 244.875 28.6968C241.913 27.9015 239.122 28.9923 239.122 32.0648C234.577 32.0648 234.787 33.7299 236.953 34.9601C239.118 36.1901 240.356 37.0279 241.734 39.0523C241.41 40.528 237.953 41.6495 236.953 42.2052C232.98 44.4096 229.263 47.7696 225.872 50.6935C223.43 52.7982 222.762 61.3512 222.481 64.5793C222.37 65.8416 222.389 65.9194 222.122 67.1423C221.807 68.5667 222.06 70.2394 223.379 68.7527C224.262 67.7572 224.449 67.8288 225.245 67.1423C227.268 65.398 228.702 62.416 230.847 60.5665C234.811 57.1475 239.352 54.1177 244.875 52.5439C248.505 51.5093 252.377 51.2085 255.92 49.9064C257.872 49.1898 259.764 48.3089 261.834 47.9114C262.104 47.8596 263.614 47.3321 263.86 47.5224C266.421 49.5072 269.615 52.4117 272.649 53.9133C273.137 54.1558 274.947 55.7065 275.249 55.6485C275.775 55.5474 276.526 53.2153 276.78 52.7759C278.143 50.416 280.485 48.1437 281.735 45.9804C281.948 45.6119 279.477 44.2302 279.247 44.052C277.178 42.4491 272.777 40.3047 270.276 39.7587C269.81 39.6573 266.428 39.2891 266.584 38.5779C267.218 35.6867 269.116 33.3532 269.762 30.4042C271.073 24.4269 272.091 17.2582 273.276 11.8539C273.495 10.855 274.916 9.6927 275.564 9.00851C277.239 7.23638 278.639 5.13738 280.106 3.15147C280.341 2.83188 282.131 0.66231 281.992 0.554509C279.346 -1.49581 263.81 2.65263 261.474 4.66749C258.137 7.54458 258.098 19.4083 255.92 24.7023C254.832 27.3489 253.954 29.9377 250.473 32.0648Z" fill="url(#paint1_linear_0_1)"/>
<defs>
<linearGradient id="paint0_linear_0_1" x1="-2" y1="60.5" x2="350" y2="60.5" gradientUnits="userSpaceOnUse">
<stop stop-color="#551BB3"/>
<stop offset="0.46" stop-color="#46959C"/>
<stop offset="1" stop-color="#3DDB8F"/>
</linearGradient>
<linearGradient id="paint1_linear_0_1" x1="252" y1="0" x2="252" y2="69.3333" gradientUnits="userSpaceOnUse">
<stop stop-color="#551BB3"/>
<stop offset="1" stop-color="#3DDB8F"/>
</linearGradient>
</defs>
</svg>
