<svg width="60" height="70" viewBox="0 0 60 70" fill="none" xmlns="http://www.w3.org/2000/svg">
<path fill-rule="evenodd" clip-rule="evenodd" d="M28.4729 32.0648C27.0277 30.4042 26.2933 29.6143 22.8753 28.6968C19.9131 27.9015 17.1218 28.9923 17.1218 32.0648C12.5768 32.0648 12.787 33.7299 14.9527 34.9601C17.1185 36.1901 18.3564 37.0279 19.7337 39.0523C19.4097 40.528 15.9535 41.6495 14.9527 42.2052C10.9803 44.4096 7.26288 47.7696 3.87209 50.6935C1.43045 52.7982 0.761583 61.3512 0.48073 64.5793C0.370171 65.8416 0.389055 65.9194 0.121762 67.1423C-0.192765 68.5667 0.0598106 70.2394 1.37879 68.7527C2.26222 67.7572 2.44911 67.8288 3.2454 67.1423C5.26764 65.398 6.70156 62.416 8.84701 60.5665C12.8114 57.1475 17.3515 54.1177 22.8753 52.5439C26.5055 51.5093 30.3767 51.2085 33.9202 49.9064C35.8724 49.1898 37.7644 48.3089 39.8342 47.9114C40.1045 47.8596 41.6135 47.3321 41.8602 47.5224C44.4213 49.5072 47.6155 52.4117 50.6485 53.9133C51.137 54.1558 52.9467 55.7065 53.2492 55.6485C53.7752 55.5474 54.526 53.2153 54.7797 52.7759C56.1435 50.416 58.4852 48.1437 59.7353 45.9804C59.9482 45.6119 57.4769 44.2302 57.2471 44.052C55.1783 42.4491 50.7767 40.3047 48.2757 39.7587C47.8099 39.6573 44.4281 39.2891 44.5842 38.5779C45.2176 35.6867 47.1157 33.3532 47.7624 30.4042C49.073 24.4269 50.0912 17.2582 51.2762 11.8539C51.4952 10.855 52.9156 9.6927 53.5635 9.00851C55.2388 7.23638 56.6392 5.13738 58.1058 3.15147C58.3409 2.83188 60.1313 0.66231 59.9923 0.554509C57.3464 -1.49581 41.8101 2.65263 39.4736 4.66749C36.1369 7.54458 36.0976 19.4083 33.9202 24.7023C32.8317 27.3489 31.9537 29.9377 28.4729 32.0648Z" fill="url(#paint0_linear_3_2)"/>
<path d="M19.36 66.14C18.5867 66.14 18.03 65.9667 17.69 65.62C17.4367 65.3667 17.31 65.0267 17.31 64.6C17.31 64.46 17.3233 64.31 17.35 64.15L18.03 60.28L19.86 59.52L19.57 61.19H22.33L22.08 62.6H19.32L19.12 63.73C19.0933 63.8567 19.08 63.97 19.08 64.07C19.08 64.49 19.28 64.7 19.68 64.7C19.8933 64.7 20.07 64.61 20.21 64.43C20.3567 64.25 20.4567 64.01 20.51 63.71H22.17C21.89 65.33 20.9533 66.14 19.36 66.14ZM30.8783 61.19C30.9716 61.47 31.0183 61.8433 31.0183 62.31C31.0183 62.77 30.9616 63.2133 30.8483 63.64C30.7349 64.0667 30.5616 64.4733 30.3283 64.86C30.1016 65.24 29.7816 65.55 29.3683 65.79C28.9616 66.0233 28.4916 66.14 27.9583 66.14C27.1583 66.14 26.6249 65.9167 26.3583 65.47C25.8783 65.9167 25.3416 66.14 24.7483 66.14C23.9483 66.14 23.3983 65.97 23.0983 65.63C22.8983 65.4033 22.7983 65.0667 22.7983 64.62C22.7983 64.3867 22.8249 64.1267 22.8783 63.84L23.3483 61.19H25.0483L24.5783 63.85C24.5583 63.95 24.5483 64.04 24.5483 64.12C24.5483 64.5 24.7449 64.69 25.1383 64.69C25.4116 64.69 25.6183 64.5733 25.7583 64.34C25.8983 64.1 26.0183 63.6833 26.1183 63.09L26.4583 61.19H28.1583L27.6883 63.85C27.6683 63.95 27.6583 64.04 27.6583 64.12C27.6583 64.5 27.8549 64.69 28.2483 64.69C28.9416 64.69 29.2883 63.9633 29.2883 62.51C29.2883 62.17 29.2616 61.7933 29.2083 61.38L29.1783 61.19H30.8783ZM33.8552 61.58C33.8552 61.7733 33.8786 61.9167 33.9252 62.01H32.1552C32.1152 61.85 32.0952 61.6433 32.0952 61.39C32.0952 60.5833 32.3652 59.94 32.9052 59.46C33.4519 58.9733 34.2319 58.73 35.2452 58.73C36.8652 58.73 37.6752 59.3833 37.6752 60.69C37.6752 61.1567 37.5619 61.5933 37.3352 62C37.1086 62.4 36.8319 62.73 36.5052 62.99C36.1786 63.2433 35.8519 63.4667 35.5252 63.66C35.1986 63.8467 34.9152 64.0067 34.6752 64.14C34.4352 64.2667 34.3052 64.3633 34.2852 64.43V64.44H36.9552L36.6752 66H31.4452L31.5752 65.26C31.6486 64.84 31.8086 64.4667 32.0552 64.14C32.3019 63.8067 32.5819 63.5467 32.8952 63.36C33.2086 63.1733 33.5386 62.99 33.8852 62.81C34.2386 62.6233 34.5586 62.46 34.8452 62.32C35.1319 62.1733 35.3686 61.9867 35.5552 61.76C35.7486 61.5333 35.8452 61.28 35.8452 61C35.8452 60.52 35.5752 60.28 35.0352 60.28C34.6619 60.28 34.3719 60.4 34.1652 60.64C33.9586 60.8733 33.8552 61.1867 33.8552 61.58ZM42.1927 66H40.4127L40.6327 64.73H37.7927L38.2027 62.42L41.0327 59H42.9327L40.0427 62.71L39.9427 63.29H41.0127L41.2627 61.92H42.9127L42.6627 63.29H43.6527L43.4027 64.73H42.4127L42.1927 66Z" fill="url(#paint1_linear_3_2)"/>
<defs>
<linearGradient id="paint0_linear_3_2" x1="30" y1="0" x2="30" y2="69.3333" gradientUnits="userSpaceOnUse">
<stop stop-color="#551BB3"/>
<stop offset="1" stop-color="#3DDB8F"/>
</linearGradient>
<linearGradient id="paint1_linear_3_2" x1="30.5" y1="55" x2="30.5" y2="70" gradientUnits="userSpaceOnUse">
<stop stop-opacity="0.78"/>
<stop offset="1" stop-color="#666666" stop-opacity="0.39"/>
</linearGradient>
</defs>
</svg>
